<?xml version="1.0" standalone="no"?>
<!DOCTYPE svg PUBLIC "-//W3C//DTD SVG 20010904//EN"
 "http://www.w3.org/TR/2001/REC-SVG-20010904/DTD/svg10.dtd">
<svg version="1.0" xmlns="http://www.w3.org/2000/svg"
 width="200.000000pt" height="200.000000pt" viewBox="0 0 200.000000 200.000000"
 preserveAspectRatio="xMidYMid meet">
<metadata>
Created by potrace 1.14, written by Peter Selinger 2001-2017
</metadata>
<g transform="translate(0.000000,200.000000) scale(0.100000,-0.100000)"
fill="#000000" stroke="none">
<path d="M360 960 l0 -600 90 0 90 0 0 225 0 225 34 0 34 0 58 -162 c32 -90
68 -190 80 -223 l22 -60 96 -3 c53 -1 96 -1 96 0 0 2 -42 108 -93 237 l-94
233 52 52 c61 60 82 113 95 234 12 111 -2 226 -34 290 -59 116 -149 152 -377
152 l-149 0 0 -600z m320 442 c52 -38 61 -74 58 -222 -5 -187 -27 -225 -142
-237 l-56 -6 0 248 0 248 58 -7 c31 -3 68 -15 82 -24z"/>
<path d="M1100 960 l0 -602 173 5 c189 5 222 12 294 60 70 47 104 119 110 235
11 184 -41 289 -161 327 -16 5 -12 9 24 27 82 41 127 150 117 288 -8 121 -56
192 -156 232 -48 19 -81 22 -228 26 l-173 4 0 -602z m309 445 c49 -25 65 -67
65 -170 1 -71 -3 -97 -17 -118 -28 -42 -75 -67 -129 -67 l-48 0 0 191 0 192
49 -6 c28 -3 64 -13 80 -22z m20 -512 c48 -35 61 -77 61 -193 0 -83 -4 -113
-18 -139 -25 -46 -74 -71 -139 -71 l-53 0 0 216 0 217 62 -6 c37 -3 71 -13 87
-24z"/>
</g>
</svg>
